<?xml version="1.0" encoding="UTF-8" standalone="no"?>
<!-- Created with Inkscape (http://www.inkscape.org/) -->

<svg
   width="43.667076mm"
   height="16.142344mm"
   viewBox="0 0 43.667076 16.142344"
   version="1.1"
   id="svg6460"
   inkscape:version="1.1 (c68e22c387, 2021-05-23)"
   sodipodi:docname="logo_mviewerstudio.svg"
   xmlns:inkscape="http://www.inkscape.org/namespaces/inkscape"
   xmlns:sodipodi="http://sodipodi.sourceforge.net/DTD/sodipodi-0.dtd"
   xmlns="http://www.w3.org/2000/svg"
   xmlns:svg="http://www.w3.org/2000/svg">
  <sodipodi:namedview
     id="namedview6462"
     pagecolor="#ffffff"
     bordercolor="#666666"
     borderopacity="1.0"
     inkscape:pageshadow="2"
     inkscape:pageopacity="0.0"
     inkscape:pagecheckerboard="0"
     inkscape:document-units="mm"
     showgrid="false"
     fit-margin-top="0"
     fit-margin-left="0"
     fit-margin-right="0"
     fit-margin-bottom="0"
     inkscape:zoom="0.72337262"
     inkscape:cx="66.355843"
     inkscape:cy="127.87324"
     inkscape:window-width="2400"
     inkscape:window-height="1271"
     inkscape:window-x="-9"
     inkscape:window-y="-9"
     inkscape:window-maximized="1"
     inkscape:current-layer="layer1" />
  <defs
     id="defs6457" />
  <g
     inkscape:label="Calque 1"
     inkscape:groupmode="layer"
     id="layer1"
     transform="translate(-87.529762,-114.45962)">
    <g
       aria-label="mviewer"
       id="text38537-1-9-1"
       style="font-size:4.8839px;line-height:0;font-family:Roboto;-inkscape-font-specification:'Roboto, Normal';letter-spacing:0px;display:inline;fill:#ffffff;stroke-width:0.305241">
      <path
         d="m 111.30702,117.82831 q 0.49816,0 0.80096,0.30769 0.30769,0.3028 0.30769,0.8498 v 1.58727 h -0.68375 v -1.49448 q 0,-0.31745 -0.16117,-0.4835 -0.16117,-0.17094 -0.43955,-0.17094 -0.27838,0 -0.44443,0.17094 -0.16117,0.16605 -0.16117,0.4835 v 1.49448 h -0.68375 v -1.49448 q 0,-0.31745 -0.16117,-0.4835 -0.16117,-0.17094 -0.43955,-0.17094 -0.28326,0 -0.44932,0.17094 -0.16117,0.16605 -0.16117,0.4835 v 1.49448 h -0.68374 v -2.70568 h 0.68374 v 0.32722 q 0.13187,-0.17094 0.33699,-0.26862 0.21001,-0.0977 0.45909,-0.0977 0.31745,0 0.56653,0.13675 0.24908,0.13187 0.38583,0.38095 0.13187,-0.23443 0.38094,-0.37606 0.25397,-0.14164 0.547,-0.14164 z"
         style="font-weight:600;font-family:Poppins;-inkscape-font-specification:'Poppins Semi-Bold'"
         id="path6570" />
      <path
         d="m 114.1934,119.94304 0.68374,-2.07565 h 0.72771 l -1.0012,2.70568 h -0.83027 l -0.99631,-2.70568 h 0.73258 z"
         style="font-weight:600;font-family:Poppins;-inkscape-font-specification:'Poppins Semi-Bold'"
         id="path6572" />
      <path
         d="m 116.33743,117.54505 q -0.18071,0 -0.30281,-0.11233 -0.11721,-0.11721 -0.11721,-0.28815 0,-0.17094 0.11721,-0.28327 0.1221,-0.11721 0.30281,-0.11721 0.1807,0 0.29791,0.11721 0.1221,0.11233 0.1221,0.28327 0,0.17094 -0.1221,0.28815 -0.11721,0.11233 -0.29791,0.11233 z m 0.33698,0.32234 v 2.70568 h -0.68374 v -2.70568 z"
         style="font-weight:600;font-family:Poppins;-inkscape-font-specification:'Poppins Semi-Bold'"
         id="path6574" />
      <path
         d="m 119.8636,119.16162 q 0,0.14652 -0.0195,0.26373 h -1.97798 q 0.0244,0.29303 0.20512,0.45909 0.1807,0.16605 0.44444,0.16605 0.38094,0 0.54211,-0.32722 h 0.73747 q -0.11722,0.39071 -0.44932,0.64467 -0.33211,0.24908 -0.81561,0.24908 -0.39072,0 -0.70328,-0.17093 -0.30769,-0.17583 -0.48351,-0.49328 -0.17094,-0.31745 -0.17094,-0.73258 0,-0.42002 0.17094,-0.73747 0.17094,-0.31746 0.47862,-0.48839 0.30769,-0.17094 0.70817,-0.17094 0.38583,0 0.68863,0.16605 0.30768,0.16606 0.47374,0.47374 0.17093,0.3028 0.17093,0.6984 z m -0.70816,-0.19536 q -0.005,-0.26373 -0.19048,-0.42001 -0.18558,-0.16117 -0.4542,-0.16117 -0.25396,0 -0.42978,0.15628 -0.17094,0.15141 -0.21001,0.4249 z"
         style="font-weight:600;font-family:Poppins;-inkscape-font-specification:'Poppins Semi-Bold'"
         id="path6576" />
      <path
         d="m 124.11259,117.86739 -0.79119,2.70568 h -0.73747 l -0.49328,-1.89007 -0.49327,1.89007 h -0.74235 l -0.79608,-2.70568 h 0.69352 l 0.47862,2.061 0.51769,-2.061 h 0.72282 l 0.50792,2.05612 0.47863,-2.05612 z"
         style="font-weight:600;font-family:Poppins;-inkscape-font-specification:'Poppins Semi-Bold'"
         id="path6578" />
      <path
         d="m 126.99897,119.16162 q 0,0.14652 -0.0195,0.26373 h -1.97798 q 0.0244,0.29303 0.20512,0.45909 0.1807,0.16605 0.44444,0.16605 0.38094,0 0.54211,-0.32722 h 0.73747 q -0.11722,0.39071 -0.44932,0.64467 -0.33211,0.24908 -0.81561,0.24908 -0.39071,0 -0.70328,-0.17093 -0.30769,-0.17583 -0.48351,-0.49328 -0.17094,-0.31745 -0.17094,-0.73258 0,-0.42002 0.17094,-0.73747 0.17094,-0.31746 0.47862,-0.48839 0.30769,-0.17094 0.70817,-0.17094 0.38583,0 0.68863,0.16605 0.30768,0.16606 0.47374,0.47374 0.17093,0.3028 0.17093,0.6984 z m -0.70816,-0.19536 q -0.005,-0.26373 -0.19048,-0.42001 -0.18558,-0.16117 -0.4542,-0.16117 -0.25396,0 -0.42978,0.15628 -0.17094,0.15141 -0.21001,0.4249 z"
         style="font-weight:600;font-family:Poppins;-inkscape-font-specification:'Poppins Semi-Bold'"
         id="path6580" />
      <path
         d="m 128.18087,118.2874 q 0.13187,-0.21489 0.34187,-0.33699 0.2149,-0.1221 0.48839,-0.1221 v 0.71794 h -0.1807 q -0.32234,0 -0.48839,0.1514 -0.16117,0.1514 -0.16117,0.52746 v 1.34796 h -0.68375 v -2.70568 h 0.68375 z"
         style="font-weight:600;font-family:Poppins;-inkscape-font-specification:'Poppins Semi-Bold'"
         id="path6582" />
    </g>
    <g
       aria-label="STUDIO"
       id="text38537-1-9-1-9"
       style="font-size:6.43495px;line-height:0;font-family:Roboto;-inkscape-font-specification:'Roboto, Normal';letter-spacing:0px;display:inline;fill:#f5ae54;stroke-width:0.402181">
      <path
         d="m 109.51108,127.22959 q -0.49549,0 -0.88802,-0.16087 -0.39253,-0.16088 -0.63063,-0.47619 -0.23165,-0.31531 -0.24452,-0.75932 h 1.17116 q 0.0257,0.25096 0.17374,0.38609 0.148,0.1287 0.3861,0.1287 0.24453,0 0.38609,-0.10939 0.14157,-0.11583 0.14157,-0.31531 0,-0.16731 -0.11583,-0.27671 -0.10939,-0.10939 -0.2767,-0.18017 -0.16087,-0.0708 -0.46331,-0.16088 -0.43758,-0.13513 -0.71428,-0.27027 -0.27671,-0.13513 -0.47619,-0.39896 -0.19948,-0.26384 -0.19948,-0.68854 0,-0.63063 0.45688,-0.98455 0.45688,-0.36036 1.19046,-0.36036 0.74646,0 1.20334,0.36036 0.45688,0.35392 0.48906,0.99098 h -1.19047 q -0.0129,-0.21879 -0.16087,-0.34105 -0.14801,-0.1287 -0.37967,-0.1287 -0.19948,0 -0.32174,0.1094 -0.12227,0.10295 -0.12227,0.30244 0,0.21879 0.20592,0.34105 0.20592,0.12226 0.6435,0.26383 0.43757,0.14801 0.70784,0.28314 0.2767,0.13514 0.47619,0.39253 0.19948,0.2574 0.19948,0.6628 0,0.3861 -0.19948,0.70141 -0.19305,0.31531 -0.56628,0.50193 -0.37323,0.18661 -0.88159,0.18661 z"
         style="font-weight:bold;font-family:Poppins;-inkscape-font-specification:'Poppins Bold'"
         id="path6585" />
      <path
         d="m 115.08375,122.66721 v 0.88159 h -1.1969 v 3.63575 h -1.10038 v -3.63575 h -1.1969 v -0.88159 z"
         style="font-weight:bold;font-family:Poppins;-inkscape-font-specification:'Poppins Bold'"
         id="path6587" />
      <path
         d="m 116.71822,122.66721 v 2.70268 q 0,0.4054 0.19949,0.62419 0.19948,0.21879 0.58558,0.21879 0.38609,0 0.59201,-0.21879 0.20592,-0.21879 0.20592,-0.62419 v -2.70268 h 1.10038 v 2.69625 q 0,0.60488 -0.2574,1.02315 -0.2574,0.41828 -0.69498,0.63063 -0.43114,0.21235 -0.96524,0.21235 -0.5341,0 -0.95881,-0.20592 -0.41827,-0.21235 -0.6628,-0.63062 -0.24452,-0.42471 -0.24452,-1.02959 v -2.69625 z"
         style="font-weight:bold;font-family:Poppins;-inkscape-font-specification:'Poppins Bold'"
         id="path6589" />
      <path
         d="m 121.86618,122.66721 q 0.71428,0 1.24838,0.28314 0.5341,0.28314 0.82368,0.79793 0.296,0.50837 0.296,1.1776 0,0.6628 -0.296,1.1776 -0.28958,0.51479 -0.83011,0.79793 -0.5341,0.28314 -1.24195,0.28314 h -1.69239 v -4.51734 z m -0.0708,3.56496 q 0.62419,0 0.97167,-0.34105 0.34749,-0.34105 0.34749,-0.96524 0,-0.62419 -0.34749,-0.97168 -0.34748,-0.34748 -0.97167,-0.34748 h -0.52123 v 2.62545 z"
         style="font-weight:bold;font-family:Poppins;-inkscape-font-specification:'Poppins Bold'"
         id="path6591" />
      <path
         d="m 125.95237,122.66721 v 4.51734 h -1.10038 v -4.51734 z"
         style="font-weight:bold;font-family:Poppins;-inkscape-font-specification:'Poppins Bold'"
         id="path6593" />
      <path
         d="m 128.8867,127.22959 q -0.63706,0 -1.17116,-0.29601 -0.52767,-0.296 -0.84298,-0.82367 -0.30888,-0.5341 -0.30888,-1.1969 0,-0.6628 0.30888,-1.19047 0.31531,-0.52766 0.84298,-0.82367 0.5341,-0.29601 1.17116,-0.29601 0.63706,0 1.16472,0.29601 0.5341,0.29601 0.83655,0.82367 0.30887,0.52767 0.30887,1.19047 0,0.6628 -0.30887,1.1969 -0.30888,0.52767 -0.83655,0.82367 -0.52766,0.29601 -1.16472,0.29601 z m 0,-1.00385 q 0.54053,0 0.86228,-0.36036 0.32818,-0.36035 0.32818,-0.95237 0,-0.59845 -0.32818,-0.95237 -0.32175,-0.36036 -0.86228,-0.36036 -0.54697,0 -0.87516,0.35392 -0.32174,0.35392 -0.32174,0.95881 0,0.59845 0.32174,0.95881 0.32819,0.35392 0.87516,0.35392 z"
         style="font-weight:bold;font-family:Poppins;-inkscape-font-specification:'Poppins Bold'"
         id="path6595" />
    </g>
    <g
       id="g11490"
       transform="matrix(1.2130099,0,0,1.2130099,50.097028,107.57697)"
       style="display:inline">
      <rect
         style="display:inline;fill:#ffffff;fill-opacity:0.15016;stroke-width:0.0902864;stroke-linecap:round;paint-order:stroke markers fill"
         id="rect3264"
         width="13.307677"
         height="13.307677"
         x="30.859381"
         y="5.6740265"
         ry="4.0174127"
         rx="4.0174127" />
      <rect
         style="display:inline;fill:#ffffff;fill-opacity:0;stroke-width:0.0974854;stroke-linecap:round;paint-order:stroke markers fill"
         id="rect8733-0-9-9-0-9"
         width="2.0470004"
         height="6.2018805"
         x="38.632637"
         y="9.2277069"
         ry="1.0482935"
         rx="1.0482935" />
      <rect
         style="display:inline;fill:#ffffff;fill-opacity:1;stroke-width:0.0984846;stroke-linecap:round;paint-order:stroke markers fill"
         id="rect8733-0"
         width="2.089154"
         height="6.2018805"
         x="34.355972"
         y="9.2151489"
         ry="1.0482935"
         rx="1.0482935" />
      <path
         style="display:inline;fill:#ffffff;fill-opacity:1;stroke-width:0.0431207"
         d="m 35.127937,15.371612 c -0.27766,-0.103406 -0.49448,-0.27426 -0.62083,-0.489202 l -0.12097,-0.20579 -0.0109,-1.379865 -0.0109,-1.379865 0.91116,0.927096 c 0.50113,0.509905 0.95775,0.9968 1.01472,1.081994 0.21045,0.314741 0.17443,0.826903 -0.0798,1.135396 -0.24865,0.301655 -0.73279,0.440424 -1.08235,0.310236 z m 2.16858,-1.961713 c -0.0594,-0.01946 -0.16617,-0.06584 -0.23716,-0.103047 -0.18321,-0.09602 -2.4838,-2.413478 -2.583,-2.601924 -0.18833,-0.357769 -0.12631,-0.8151147 0.15138,-1.1163707 0.30043,-0.32593 0.63916,-0.423919 1.05127,-0.304113 0.21977,0.06389 0.304,0.126863 0.75693,0.565917 0.53988,0.5233547 0.76212,0.6625667 1.06026,0.6641527 0.34886,0.0019 0.52287,-0.100899 1.05068,-0.6204307 0.60085,-0.591438 0.69761,-0.648459 1.1,-0.648267 0.45339,1.64e-4 0.78941,0.215035 0.9552,0.610669 0.0943,0.2250227 0.0748,0.6583547 -0.0389,0.8642827 -0.12856,0.232878 -2.28855,2.446302 -2.52054,2.582894 -0.19481,0.114705 -0.56103,0.166846 -0.74614,0.106237 z"
         id="path8300-4-2"
         sodipodi:nodetypes="cscccccccccssssccccscscc" />
      <path
         id="path20956-4"
         style="display:inline;fill:#f5ae54;fill-opacity:1;stroke-width:0.011409"
         d="m 40.660463,11.960615 -0.887283,0.883667 c -0.512241,0.510096 -0.940876,0.974687 -1.013375,1.099158 -0.330361,0.566982 -0.01617,1.290542 0.628385,1.447457 0.31287,0.07617 0.652124,-0.01483 0.923976,-0.24753 0.339058,-0.290551 0.346265,-0.325335 0.347265,-1.846399 z m -1.010274,2.024166 a 0.41723362,0.41723362 0 0 1 0.417547,0.417029 0.41723362,0.41723362 0 0 1 -0.417547,0.417029 0.41723362,0.41723362 0 0 1 -0.417029,-0.417029 0.41723362,0.41723362 0 0 1 0.417029,-0.417029 z" />
    </g>
  </g>
</svg>
